<?xml version="1.0" encoding="UTF-8"?>
<!DOCTYPE svg PUBLIC "-//W3C//DTD SVG 1.1//EN" "http://www.w3.org/Graphics/SVG/1.1/DTD/svg11.dtd">
<svg xmlns="http://www.w3.org/2000/svg" version="1.1" width="4501px" height="4501px" style="shape-rendering:geometricPrecision; text-rendering:geometricPrecision; image-rendering:optimizeQuality; fill-rule:evenodd; clip-rule:evenodd" xmlns:xlink="http://www.w3.org/1999/xlink">
<g><path style="opacity:0.997" fill="#f3f2f1" d="M 2684.5,586.5 C 2720.28,585.063 2754.94,590.563 2788.5,603C 2990.58,678.47 3192.58,754.137 3394.5,830C 3463.33,863.164 3508.83,916.331 3531,989.5C 3544.12,1037.02 3543.46,1084.36 3529,1131.5C 3392.24,1498.85 3255.07,1866.01 3117.5,2233C 3141.78,2243.13 3164.11,2256.3 3184.5,2272.5C 3227.08,2240.35 3275.08,2221.18 3328.5,2215C 3389.41,2206.93 3446.75,2217.6 3500.5,2247C 3536.75,2268.75 3564.08,2298.58 3582.5,2336.5C 3644.14,2271.17 3719.47,2230 3808.5,2213C 3905.8,2194.47 4000.8,2202.47 4093.5,2237C 4215.83,2289.42 4294.66,2379.92 4330,2508.5C 4351.39,2593.77 4353.05,2679.44 4335,2765.5C 4312.13,2870.19 4257.63,2953.69 4171.5,3016C 4108.27,3058.19 4038.6,3082.52 3962.5,3089C 3877.87,3097.67 3796.2,3086 3717.5,3054C 3671.41,3033.72 3630.58,3005.89 3595,2970.5C 3587.01,2994.83 3572.51,3014.33 3551.5,3029C 3504.33,3062.39 3451.66,3080.06 3393.5,3082C 3348.68,3084.2 3305.35,3077.53 3263.5,3062C 3287.21,3088.26 3301.04,3119.1 3305,3154.5C 3305.99,3292.53 3305.66,3430.53 3304,3568.5C 3299.16,3591.99 3287.66,3611.49 3269.5,3627C 3233.23,3654.66 3192.23,3670.99 3146.5,3676C 3102.23,3682.13 3059.56,3676.47 3018.5,3659C 3009.74,3654.57 3001.24,3649.73 2993,3644.5C 2936.86,3674.43 2877.36,3684.26 2814.5,3674C 2766.12,3664.66 2726.79,3640.83 2696.5,3602.5C 2678.76,3625.73 2656.42,3643.23 2629.5,3655C 2570.28,3680.24 2509.61,3684.58 2447.5,3668C 2413.3,3656.93 2384.3,3638.1 2360.5,3611.5C 2344.16,3629.66 2324.83,3643.83 2302.5,3654C 2251.15,3677.08 2197.81,3683.41 2142.5,3673C 2119.16,3667.66 2097.49,3658.49 2077.5,3645.5C 2021.66,3674.6 1962.66,3684.1 1900.5,3674C 1875.38,3668.85 1851.88,3659.68 1830,3646.5C 1769.07,3678.49 1705.23,3685.99 1638.5,3669C 1599.89,3657.36 1568.06,3635.86 1543,3604.5C 1525.81,3626.7 1504.31,3643.53 1478.5,3655C 1416.25,3682.15 1352.92,3685.15 1288.5,3664C 1232.22,3642.73 1195.72,3603.23 1179,3545.5C 1177.23,3537.57 1175.9,3529.57 1175,3521.5C 1174.33,3386.17 1174.33,3250.83 1175,3115.5C 1175.74,3110.45 1176.74,3105.45 1178,3100.5C 1180.07,3094.39 1182.07,3088.39 1184,3082.5C 1078.97,3062.35 994.307,3010.02 930,2925.5C 926,2919.5 922,2913.5 918,2907.5C 840.115,3012.71 735.282,3068.54 603.5,3075C 527.5,3075.67 451.5,3075.67 375.5,3075C 307.183,3072.58 249.683,3046.75 203,2997.5C 177.561,2967.89 162.561,2933.56 158,2894.5C 156.353,2734.51 156.02,2574.51 157,2414.5C 162.814,2340.68 197.98,2285.84 262.5,2250C 293.218,2233.82 325.885,2224.15 360.5,2221C 442.152,2219.37 523.819,2219.04 605.5,2220C 716.944,2225.15 810.777,2267.99 887,2348.5C 897.736,2360.73 907.903,2373.4 917.5,2386.5C 981.663,2292.69 1070,2234.86 1182.5,2213C 1220.85,2206.08 1259.52,2202.58 1298.5,2202.5C 1195.77,1889.14 1092.94,1575.81 990,1262.5C 980.521,1237.25 974.188,1211.25 971,1184.5C 965.128,1096.12 995.628,1023.28 1062.5,966C 1084.72,948.218 1109.38,934.551 1136.5,925C 1339.83,858.333 1543.17,791.667 1746.5,725C 1839.23,700.071 1921.23,719.404 1992.5,783C 2025.42,815.302 2048.25,853.802 2061,898.5C 2115.03,1063.94 2169.36,1229.27 2224,1394.5C 2305,1177.5 2386,960.5 2467,743.5C 2498.22,670.276 2551.72,621.442 2627.5,597C 2646.3,591.605 2665.3,588.105 2684.5,586.5 Z"/></g>
<g><path style="opacity:1" fill="#e74f3b" d="M 2381.5,2225.5 C 2388.87,2195.95 2389.37,2166.29 2383,2136.5C 2328.19,1969.24 2273.69,1801.9 2219.5,1634.5C 2326.38,1347.08 2433.54,1059.75 2541,772.5C 2567.79,712.061 2613.96,676.894 2679.5,667C 2702.24,664.82 2724.57,666.82 2746.5,673C 2947.94,747.813 3149.28,822.813 3350.5,898C 3413.75,924.28 3450.25,971.447 3460,1039.5C 3461.81,1060.46 3460.14,1081.13 3455,1101.5C 3316.52,1472.45 3178.35,1843.45 3040.5,2214.5C 2978.78,2207.91 2920.11,2218.08 2864.5,2245C 2857.17,2249.33 2849.83,2253.67 2842.5,2258C 2835.56,2263.05 2828.73,2268.22 2822,2273.5C 2783.09,2240.07 2737.92,2220.57 2686.5,2215C 2617.8,2208.07 2552.8,2220.41 2491.5,2252C 2484.66,2256.18 2477.82,2260.35 2471,2264.5C 2443.02,2247.12 2413.19,2234.12 2381.5,2225.5 Z"/></g>
<g><path style="opacity:1" fill="#f8ab24" d="M 2219.5,1634.5 C 2273.69,1801.9 2328.19,1969.24 2383,2136.5C 2389.37,2166.29 2388.87,2195.95 2381.5,2225.5C 2321.03,2209.42 2260.36,2208.59 2199.5,2223C 2144.54,2237.05 2097.71,2264.55 2059,2305.5C 2039.5,2284.52 2017.33,2267.02 1992.5,2253C 1991.86,2248.07 1991.19,2243.23 1990.5,2238.5C 1984.71,2196.42 1961.37,2169.59 1920.5,2158C 1878.8,2151.61 1846.3,2165.78 1823,2200.5C 1820.88,2204.4 1819.05,2208.4 1817.5,2212.5C 1762.79,2215.59 1711.12,2229.76 1662.5,2255C 1646.29,2263.87 1631.79,2275.04 1619,2288.5C 1610.67,2299.48 1604.17,2311.48 1599.5,2324.5C 1539.4,2266.45 1468.07,2229.45 1385.5,2213.5C 1280.18,1890.36 1174.34,1567.36 1068,1244.5C 1062.06,1227.01 1056.72,1209.34 1052,1191.5C 1042.23,1123.11 1064.06,1067.28 1117.5,1024C 1132.34,1013.58 1148.34,1005.25 1165.5,999C 1367.98,933.062 1570.31,866.729 1772.5,800C 1840.31,783.99 1898.48,800.823 1947,850.5C 1960.44,866.372 1971.11,884.038 1979,903.5C 2058.71,1147.45 2138.87,1391.11 2219.5,1634.5 Z"/></g>
<g><path style="opacity:1" fill="#fefefe" d="M 2835.5,900.5 C 2873.15,897.244 2902.32,911.244 2923,942.5C 2935.17,968.842 2947.34,995.175 2959.5,1021.5C 2984.23,1009.8 3009.23,998.635 3034.5,988C 3076.31,978.008 3110.81,989.508 3138,1022.5C 3157.52,1050.27 3160.86,1079.94 3148,1111.5C 3139.68,1128.16 3127.51,1141.32 3111.5,1151C 3085.82,1162.84 3060.16,1174.67 3034.5,1186.5C 3046.22,1211.26 3057.38,1236.26 3068,1261.5C 3078.77,1310.24 3062.94,1347.41 3020.5,1373C 2979.19,1391.2 2943.36,1383.7 2913,1350.5C 2910.33,1346.5 2907.67,1342.5 2905,1338.5C 2893.15,1312.79 2881.31,1287.13 2869.5,1261.5C 2844.29,1273.27 2818.95,1284.77 2793.5,1296C 2739.72,1310.03 2701.88,1291.53 2680,1240.5C 2666.03,1201.21 2674.53,1167.71 2705.5,1140C 2709.5,1137.33 2713.5,1134.67 2717.5,1132C 2743.35,1120.24 2769.02,1108.24 2794.5,1096C 2783.54,1072.58 2772.7,1049.08 2762,1025.5C 2746.26,982.738 2756.09,947.238 2791.5,919C 2805.38,910.767 2820.05,904.601 2835.5,900.5 Z"/></g>
<g><path style="opacity:1" fill="#fffefe" d="M 1525.5,1016.5 C 1566.07,1017.02 1594.57,1035.69 1611,1072.5C 1619.48,1098.1 1627.64,1123.77 1635.5,1149.5C 1662.18,1141.44 1688.84,1133.27 1715.5,1125C 1765.45,1120.38 1800.61,1140.88 1821,1186.5C 1833.03,1229.74 1820.87,1264.24 1784.5,1290C 1779.62,1292.61 1774.62,1294.94 1769.5,1297C 1744.46,1305.07 1719.46,1313.23 1694.5,1321.5C 1693.39,1322.72 1693.22,1324.06 1694,1325.5C 1703.07,1352.71 1711.74,1380.04 1720,1407.5C 1723.83,1462.36 1698.99,1496.52 1645.5,1510C 1600.05,1516.69 1567.21,1499.52 1547,1458.5C 1538.19,1431.9 1529.69,1405.23 1521.5,1378.5C 1492.61,1387.96 1463.61,1397.13 1434.5,1406C 1393.08,1410.38 1362.25,1394.54 1342,1358.5C 1321.47,1315.18 1328.63,1277.34 1363.5,1245C 1370.71,1239.89 1378.38,1235.56 1386.5,1232C 1412.1,1223.73 1437.6,1215.23 1463,1206.5C 1462.99,1202.78 1462.32,1199.11 1461,1195.5C 1453.79,1174.22 1446.79,1152.88 1440,1131.5C 1433.3,1088.42 1447.8,1054.59 1483.5,1030C 1496.63,1022.34 1510.63,1017.84 1525.5,1016.5 Z"/></g>
<g><path style="opacity:1" fill="#fefefd" d="M 2388.5,1372.5 C 2398.59,1373.25 2408.26,1375.75 2417.5,1380C 2667.58,1473.47 2917.58,1567.14 3167.5,1661C 3180.56,1671.19 3184.06,1684.02 3178,1699.5C 3168.68,1715.28 3155.18,1720.44 3137.5,1715C 2885.93,1620.81 2634.27,1526.81 2382.5,1433C 2364.73,1424.36 2358.56,1410.52 2364,1391.5C 2369.01,1380.93 2377.18,1374.6 2388.5,1372.5 Z"/></g>
<g><path style="opacity:1" fill="#fffefe" d="M 2096.5,1512.5 C 2114.96,1511.13 2127.13,1519.13 2133,1536.5C 2135.22,1552.22 2129.39,1563.72 2115.5,1571C 1857.78,1655.46 1600.12,1740.13 1342.5,1825C 1319.27,1827.74 1306.27,1817.57 1303.5,1794.5C 1304.34,1782.01 1310.34,1772.84 1321.5,1767C 1579.98,1682.23 1838.31,1597.4 2096.5,1512.5 Z"/></g>
<g><path style="opacity:1" fill="#fffefe" d="M 1756.5,1746.5 C 1805.58,1745.13 1838.08,1767.46 1854,1813.5C 1863.51,1859.29 1848.34,1894.13 1808.5,1918C 1766.28,1936.76 1729.11,1929.59 1697,1896.5C 1677.39,1870.7 1671.72,1842.03 1680,1810.5C 1693.28,1774.37 1718.78,1753.04 1756.5,1746.5 Z"/></g>
<g><path style="opacity:1" fill="#fefefe" d="M 2461.5,1759.5 C 2474.47,1758.55 2487.13,1760.05 2499.5,1764C 2602.09,1802.53 2704.76,1840.86 2807.5,1879C 2840.01,1891.51 2860.51,1914.68 2869,1948.5C 2875.34,1983.81 2865.51,2013.64 2839.5,2038C 2817.63,2055.1 2792.96,2061.1 2765.5,2056C 2658.41,2016.63 2551.41,1976.96 2444.5,1937C 2397.08,1918 2377.24,1883.16 2385,1832.5C 2395.19,1791.8 2420.69,1767.47 2461.5,1759.5 Z"/></g>
<g><path style="opacity:1" fill="#fffefe" d="M 1971.5,1902.5 C 2018.53,1898.76 2052.7,1917.76 2074,1959.5C 2087.46,1995.5 2081.29,2027.67 2055.5,2056C 2048.66,2062.5 2040.99,2067.84 2032.5,2072C 1920.18,2109 1807.84,2146 1695.5,2183C 1660,2190.17 1630.5,2180 1607,2152.5C 1587.96,2125.75 1582.29,2096.41 1590,2064.5C 1599.35,2038.49 1616.85,2020.32 1642.5,2010C 1752.13,1973.62 1861.8,1937.79 1971.5,1902.5 Z"/></g>
<g><path style="opacity:1" fill="#fefefe" d="M 1990.5,2238.5 C 1990.67,2242.85 1990.5,2247.18 1990,2251.5C 1935.96,2222.99 1878.46,2209.99 1817.5,2212.5C 1819.05,2208.4 1820.88,2204.4 1823,2200.5C 1846.3,2165.78 1878.8,2151.61 1920.5,2158C 1961.37,2169.59 1984.71,2196.42 1990.5,2238.5 Z"/></g>
<g><path style="opacity:1" fill="#e74f3b" d="M 1250.5,2305.5 C 1319.52,2300.28 1385.52,2311.78 1448.5,2340C 1526,2379.51 1577.5,2441.01 1603,2524.5C 1617.86,2575.79 1623.19,2628.12 1619,2681.5C 1614.63,2747.96 1593.96,2808.63 1557,2863.5C 1515.02,2919.44 1460.19,2956.94 1392.5,2976C 1346.24,2988.1 1299.24,2992.44 1251.5,2989C 1178.56,2984.59 1113.89,2959.59 1057.5,2914C 1004.22,2865.98 970.725,2806.48 957,2735.5C 941.576,2658.2 946.243,2582.2 971,2507.5C 1009.68,2406.4 1081.51,2342.57 1186.5,2316C 1207.74,2311.13 1229.08,2307.63 1250.5,2305.5 Z"/></g>
<g><path style="opacity:1" fill="#e74f3b" d="M 3876.5,2305.5 C 3945.53,2300.28 4011.53,2311.78 4074.5,2340C 4152.01,2379.52 4203.51,2441.02 4229,2524.5C 4246.81,2589.67 4250.47,2655.67 4240,2722.5C 4209.62,2875.88 4117.12,2964.05 3962.5,2987C 3893.27,2995.75 3826.27,2987.42 3761.5,2962C 3674.88,2923.37 3618.04,2858.54 3591,2767.5C 3573.97,2707.81 3569.64,2647.15 3578,2585.5C 3586.53,2518.8 3612.2,2459.8 3655,2408.5C 3701.32,2358.41 3758.15,2326.58 3825.5,2313C 3842.55,2309.87 3859.55,2307.37 3876.5,2305.5 Z"/></g>
<g><path style="opacity:1" fill="#e74f3b" d="M 2053.5,2594.5 C 2053.5,2597.17 2053.5,2599.83 2053.5,2602.5C 2057.17,2602.5 2060.83,2602.5 2064.5,2602.5C 2064.5,2599.83 2064.5,2597.17 2064.5,2594.5C 2065.11,2577.97 2067.27,2561.64 2071,2545.5C 2082.32,2504.19 2093.65,2462.85 2105,2421.5C 2124.87,2375.63 2158.37,2344.13 2205.5,2327C 2275.09,2305.63 2342.42,2311.3 2407.5,2344C 2412,2347.17 2416.5,2350.33 2421,2353.5C 2421.67,2549.5 2421.67,2745.5 2421,2941.5C 2404.04,2955.4 2384.87,2965.23 2363.5,2971C 2330.36,2980.74 2296.69,2983.08 2262.5,2978C 2232.79,2972.73 2207.63,2959.23 2187,2937.5C 2176.08,2924.08 2169.41,2908.74 2167,2891.5C 2166.33,2830.83 2166.33,2770.17 2167,2709.5C 2168.63,2688.25 2172.79,2667.58 2179.5,2647.5C 2180.04,2647.44 2180.38,2647.11 2180.5,2646.5C 2175.68,2645.19 2171.02,2645.19 2166.5,2646.5C 2153.4,2687.63 2140.57,2728.96 2128,2770.5C 2121.62,2784.55 2111.12,2794.05 2096.5,2799C 2084.4,2803.42 2071.9,2805.25 2059,2804.5C 2034.81,2806.66 2014.14,2799.33 1997,2782.5C 1993.83,2778.16 1991.16,2773.49 1989,2768.5C 1976.96,2727.57 1964.46,2686.9 1951.5,2646.5C 1946.98,2645.19 1942.32,2645.19 1937.5,2646.5C 1937.62,2647.11 1937.96,2647.44 1938.5,2647.5C 1945.67,2667.84 1949.83,2688.84 1951,2710.5C 1951.67,2787.83 1951.67,2865.17 1951,2942.5C 1929.69,2958.57 1905.85,2969.4 1879.5,2975C 1855.43,2980.17 1831.09,2981.84 1806.5,2980C 1775.31,2977.06 1747.98,2965.39 1724.5,2945C 1707.92,2928.67 1698.76,2908.84 1697,2885.5C 1696.33,2708.17 1696.33,2530.83 1697,2353.5C 1715.03,2340.4 1734.86,2330.9 1756.5,2325C 1800.11,2312.98 1844.11,2311.31 1888.5,2320C 1935.94,2330.44 1973.1,2355.6 2000,2395.5C 2007.3,2407.43 2012.96,2420.09 2017,2433.5C 2027.41,2473.57 2038.08,2513.57 2049,2553.5C 2051.73,2567.04 2053.23,2580.71 2053.5,2594.5 Z"/></g>
<g><path style="opacity:1" fill="#e74f3b" d="M 2629.5,2314.5 C 2664.84,2311.14 2698.51,2316.97 2730.5,2332C 2759.99,2347.84 2777.49,2372.34 2783,2405.5C 2783.67,2584.17 2783.67,2762.83 2783,2941.5C 2772.38,2950.56 2760.55,2957.73 2747.5,2963C 2705.78,2979.09 2662.78,2984.09 2618.5,2978C 2586.8,2972.58 2560.63,2957.74 2540,2933.5C 2530.62,2921.05 2524.96,2907.05 2523,2891.5C 2522.33,2711.83 2522.33,2532.17 2523,2352.5C 2543.68,2336.81 2566.85,2326.31 2592.5,2321C 2604.9,2318.42 2617.23,2316.25 2629.5,2314.5 Z"/></g>
<g><path style="opacity:1" fill="#e74f3b" d="M 3254.5,2641.5 C 3259.02,2642.81 3263.68,2642.81 3268.5,2641.5C 3268.38,2640.89 3268.04,2640.56 3267.5,2640.5C 3256.65,2617.75 3250.15,2593.75 3248,2568.5C 3246.89,2529.68 3246.39,2490.85 3246.5,2452C 3246.83,2418.83 3247.17,2385.67 3247.5,2352.5C 3266.74,2337.21 3288.41,2326.71 3312.5,2321C 3351.94,2311.15 3390.94,2312.49 3429.5,2325C 3459.87,2336.04 3481.04,2356.54 3493,2386.5C 3494.65,2391.75 3495.98,2397.09 3497,2402.5C 3497.67,2582.17 3497.67,2761.83 3497,2941.5C 3484.3,2953.18 3469.8,2962.01 3453.5,2968C 3421.38,2978.94 3388.38,2982.94 3354.5,2980C 3309.78,2976.22 3272.61,2957.72 3243,2924.5C 3235.14,2914.29 3228.47,2903.29 3223,2891.5C 3191.46,2812.38 3159.63,2733.38 3127.5,2654.5C 3122.87,2653.34 3118.2,2653.17 3113.5,2654C 3120.12,2665.41 3124.95,2677.58 3128,2690.5C 3132.07,2707.6 3134.41,2724.93 3135,2742.5C 3135.67,2808.83 3135.67,2875.17 3135,2941.5C 3121.78,2952.7 3106.95,2961.2 3090.5,2967C 3050.28,2981.77 3009.28,2984.44 2967.5,2975C 2943.31,2968.83 2922.81,2956.66 2906,2938.5C 2894.68,2925.2 2887.68,2909.86 2885,2892.5C 2884.33,2712.5 2884.33,2532.5 2885,2352.5C 2910.47,2331.78 2939.64,2319.61 2972.5,2316C 3015.48,2310.11 3056.48,2316.44 3095.5,2335C 3122.46,2350.3 3142.96,2371.8 3157,2399.5C 3189.79,2480.07 3222.29,2560.74 3254.5,2641.5 Z"/></g>
<g><path style="opacity:1" fill="#e74f3b" d="M 368.5,2321.5 C 449.501,2321.33 530.501,2321.5 611.5,2322C 726.285,2332.27 809.785,2388.43 862,2490.5C 891.701,2555.78 902.034,2624.11 893,2695.5C 883.629,2774.73 850.462,2841.89 793.5,2897C 745.306,2939.58 688.972,2964.58 624.5,2972C 540.514,2973.63 456.514,2973.96 372.5,2973C 341.307,2971.16 313.64,2960.5 289.5,2941C 272.913,2925.66 262.747,2906.83 259,2884.5C 258.011,2724.14 258.345,2563.81 260,2403.5C 267.527,2375.31 284.027,2354.14 309.5,2340C 328.181,2330.27 347.847,2324.1 368.5,2321.5 Z"/></g>
<g><path style="opacity:1" fill="#f3f2f1" d="M 1274.5,2493.5 C 1294.3,2491.49 1310.47,2498.15 1323,2513.5C 1334.78,2529.73 1342.78,2547.73 1347,2567.5C 1354.64,2607.52 1356.64,2647.85 1353,2688.5C 1351.06,2711.55 1346.06,2733.88 1338,2755.5C 1332.45,2769.44 1324.28,2781.61 1313.5,2792C 1289.86,2807.85 1268.02,2805.68 1248,2785.5C 1234.58,2767.6 1225.58,2747.6 1221,2725.5C 1211.47,2674.89 1211.13,2624.22 1220,2573.5C 1224.04,2551.09 1232.71,2530.76 1246,2512.5C 1253.66,2503.27 1263.16,2496.93 1274.5,2493.5 Z"/></g>
<g><path style="opacity:1" fill="#f3f2f1" d="M 3900.5,2493.5 C 3920.3,2491.49 3936.47,2498.15 3949,2513.5C 3964.43,2536.11 3973.76,2561.11 3977,2588.5C 3982.71,2634.72 3981.38,2680.72 3973,2726.5C 3969.16,2743.04 3963.16,2758.71 3955,2773.5C 3948.01,2785.49 3938.17,2794.33 3925.5,2800C 3905.22,2806.13 3888.05,2801.29 3874,2785.5C 3860.19,2767.75 3851.19,2747.75 3847,2725.5C 3837.07,2673.16 3837.07,2620.82 3847,2568.5C 3851.55,2548.07 3859.88,2529.41 3872,2512.5C 3879.69,2503.25 3889.19,2496.92 3900.5,2493.5 Z"/></g>
<g><path style="opacity:1" fill="#f3f2f1" d="M 510.5,2511.5 C 570.497,2503.39 608.331,2528.39 624,2586.5C 632.854,2628.24 632.521,2669.9 623,2711.5C 606.645,2767.95 569.145,2791.95 510.5,2783.5C 510.5,2692.83 510.5,2602.17 510.5,2511.5 Z"/></g>
<g><path style="opacity:1" fill="#f1bca9" d="M 2053.5,2594.5 C 2054.47,2596.61 2054.8,2598.94 2054.5,2601.5C 2057.5,2601.5 2060.5,2601.5 2063.5,2601.5C 2063.2,2598.94 2063.53,2596.61 2064.5,2594.5C 2064.5,2597.17 2064.5,2599.83 2064.5,2602.5C 2060.83,2602.5 2057.17,2602.5 2053.5,2602.5C 2053.5,2599.83 2053.5,2597.17 2053.5,2594.5 Z"/></g>
<g><path style="opacity:1" fill="#eb8065" d="M 3267.5,2640.5 C 3268.04,2640.56 3268.38,2640.89 3268.5,2641.5C 3263.68,2642.81 3259.02,2642.81 3254.5,2641.5C 3259.03,2641.82 3263.37,2641.48 3267.5,2640.5 Z"/></g>
<g><path style="opacity:1" fill="#efa58c" d="M 1951.5,2646.5 C 1946.97,2646.18 1942.63,2646.52 1938.5,2647.5C 1937.96,2647.44 1937.62,2647.11 1937.5,2646.5C 1942.32,2645.19 1946.98,2645.19 1951.5,2646.5 Z"/></g>
<g><path style="opacity:1" fill="#efa48b" d="M 2166.5,2646.5 C 2171.02,2645.19 2175.68,2645.19 2180.5,2646.5C 2180.38,2647.11 2180.04,2647.44 2179.5,2647.5C 2175.37,2646.52 2171.03,2646.18 2166.5,2646.5 Z"/></g>
<g><path style="opacity:1" fill="#f8ab24" d="M 2103.5,3441.5 C 2082.01,3440.5 2060.34,3440.17 2038.5,3440.5C 2038.5,3476.5 2038.5,3512.5 2038.5,3548.5C 2032.24,3553.97 2025.24,3558.47 2017.5,3562C 1982.54,3576.77 1946.54,3580.11 1909.5,3572C 1887.42,3565.9 1870.59,3553.07 1859,3533.5C 1856.19,3527.08 1854.19,3520.41 1853,3513.5C 1852.33,3427.17 1852.33,3340.83 1853,3254.5C 1861.39,3197.2 1890.56,3154.03 1940.5,3125C 1996.06,3095.93 2054.73,3087.27 2116.5,3099C 2164.02,3107.17 2204.52,3128.34 2238,3162.5C 2262.86,3190.38 2276.86,3223.05 2280,3260.5C 2280.67,3356.5 2280.67,3452.5 2280,3548.5C 2266.41,3559.04 2251.25,3566.54 2234.5,3571C 2211.38,3577 2188.04,3578 2164.5,3574C 2138.57,3568.06 2119.74,3553.23 2108,3529.5C 2106.41,3524.23 2105.08,3518.9 2104,3513.5C 2103.5,3489.5 2103.33,3465.5 2103.5,3441.5 Z"/></g>
<g><path style="opacity:1" fill="#f8ab24" d="M 1530.5,3302.5 C 1530.5,3303.83 1530.5,3305.17 1530.5,3306.5C 1533.17,3306.5 1535.83,3306.5 1538.5,3306.5C 1538.5,3304.17 1538.5,3301.83 1538.5,3299.5C 1538.8,3288.02 1540.3,3276.69 1543,3265.5C 1550.88,3234.3 1559.55,3203.3 1569,3172.5C 1588.7,3134.16 1619.87,3111 1662.5,3103C 1703.56,3096.82 1742.89,3102.48 1780.5,3120C 1784.75,3122.71 1788.92,3125.54 1793,3128.5C 1793.67,3268.5 1793.67,3408.5 1793,3548.5C 1780.59,3558.95 1766.43,3566.12 1750.5,3570C 1720.02,3578.99 1689.69,3578.66 1659.5,3569C 1639.9,3561.4 1625.4,3548.23 1616,3529.5C 1614.2,3524.63 1612.86,3519.63 1612,3514.5C 1611.33,3468.83 1611.33,3423.17 1612,3377.5C 1613.34,3364.14 1616.17,3351.14 1620.5,3338.5C 1617.23,3337.51 1613.9,3337.18 1610.5,3337.5C 1602.83,3363.86 1594.99,3390.19 1587,3416.5C 1582.07,3436.09 1569.57,3447.26 1549.5,3450C 1539.5,3450.67 1529.5,3450.67 1519.5,3450C 1502.58,3447.81 1490.75,3438.97 1484,3423.5C 1475.19,3394.9 1466.69,3366.24 1458.5,3337.5C 1455.17,3337.5 1451.83,3337.5 1448.5,3337.5C 1452.73,3351.18 1455.56,3365.18 1457,3379.5C 1457.67,3436.17 1457.67,3492.83 1457,3549.5C 1441.34,3561.18 1423.84,3569.01 1404.5,3573C 1383.22,3577.16 1361.89,3577.49 1340.5,3574C 1313.82,3568.6 1293.98,3554.1 1281,3530.5C 1278.08,3524.15 1276.41,3517.48 1276,3510.5C 1275.33,3383.17 1275.33,3255.83 1276,3128.5C 1288.75,3118.88 1302.91,3112.04 1318.5,3108C 1356.07,3097.38 1393.41,3098.04 1430.5,3110C 1465.18,3122.68 1489.35,3146.18 1503,3180.5C 1511.16,3210.12 1519.16,3239.79 1527,3269.5C 1529.26,3280.39 1530.43,3291.39 1530.5,3302.5 Z"/></g>
<g><path style="opacity:1" fill="#f8ab24" d="M 2841.5,3100.5 C 2872.84,3096.73 2901.5,3103.56 2927.5,3121C 2940.21,3131.37 2948.37,3144.54 2952,3160.5C 2952.5,3206.17 2952.67,3251.83 2952.5,3297.5C 2974.17,3297.5 2995.83,3297.5 3017.5,3297.5C 3017.33,3241.17 3017.5,3184.83 3018,3128.5C 3034.37,3115.7 3052.87,3107.54 3073.5,3104C 3099.02,3098.73 3124.35,3099.4 3149.5,3106C 3176.53,3113.7 3194.37,3130.87 3203,3157.5C 3204.16,3223.64 3204.66,3289.8 3204.5,3356C 3204.33,3420.17 3204.17,3484.33 3204,3548.5C 3197.94,3554.12 3191.1,3558.62 3183.5,3562C 3147.13,3577.36 3109.79,3580.36 3071.5,3571C 3049.43,3563.92 3033.27,3550.09 3023,3529.5C 3020.72,3523.67 3019.06,3517.67 3018,3511.5C 3017.5,3475.17 3017.33,3438.83 3017.5,3402.5C 2995.83,3402.5 2974.17,3402.5 2952.5,3402.5C 2952.67,3451.5 2952.5,3500.5 2952,3549.5C 2935.14,3561.84 2916.31,3569.67 2895.5,3573C 2867.31,3579.01 2839.65,3577.34 2812.5,3568C 2787.47,3557.98 2772.31,3539.81 2767,3513.5C 2766.33,3384.83 2766.33,3256.17 2767,3127.5C 2783.4,3115.72 2801.56,3107.89 2821.5,3104C 2828.31,3102.86 2834.98,3101.7 2841.5,3100.5 Z"/></g>
<g><path style="opacity:1" fill="#f8ab24" d="M 2668.5,3245.5 C 2648.83,3245.5 2629.17,3245.5 2609.5,3245.5C 2609.5,3346.5 2609.5,3447.5 2609.5,3548.5C 2596.67,3559.08 2582,3566.25 2565.5,3570C 2537.3,3577.78 2508.97,3578.45 2480.5,3572C 2461.48,3566.58 2445.98,3556.08 2434,3540.5C 2428.89,3532.18 2425.56,3523.18 2424,3513.5C 2423.5,3424.17 2423.33,3334.83 2423.5,3245.5C 2391.83,3245.67 2360.16,3245.5 2328.5,3245C 2317.14,3230.1 2310.31,3213.26 2308,3194.5C 2303.78,3170 2308.78,3147.67 2323,3127.5C 2332.64,3116.1 2344.8,3108.93 2359.5,3106C 2474.83,3105.17 2590.17,3105.33 2705.5,3106.5C 2722.53,3130.44 2729.36,3157.1 2726,3186.5C 2722.59,3211.53 2709.76,3229.7 2687.5,3241C 2681.33,3243.29 2675,3244.79 2668.5,3245.5 Z"/></g>
<g><path style="opacity:1" fill="#f3f2f1" d="M 2103.5,3352.5 C 2082.17,3352.5 2060.83,3352.5 2039.5,3352.5C 2039.5,3321.83 2039.5,3291.17 2039.5,3260.5C 2044.17,3237.34 2058.17,3227.84 2081.5,3232C 2093,3236.84 2100.17,3245.34 2103,3257.5C 2103.5,3289.16 2103.67,3320.83 2103.5,3352.5 Z"/></g>
<g><path style="opacity:1" fill="#f5e1c5" d="M 2668.5,3245.5 C 2649.34,3246.5 2630.01,3246.83 2610.5,3246.5C 2610.83,3347.33 2610.5,3448 2609.5,3548.5C 2609.5,3447.5 2609.5,3346.5 2609.5,3245.5C 2629.17,3245.5 2648.83,3245.5 2668.5,3245.5 Z"/></g>
<g><path style="opacity:1" fill="#f7d8ac" d="M 1538.5,3299.5 C 1538.5,3301.83 1538.5,3304.17 1538.5,3306.5C 1535.83,3306.5 1533.17,3306.5 1530.5,3306.5C 1530.5,3305.17 1530.5,3303.83 1530.5,3302.5C 1531.4,3303.21 1531.74,3304.21 1531.5,3305.5C 1533.5,3305.5 1535.5,3305.5 1537.5,3305.5C 1537.21,3303.26 1537.54,3301.26 1538.5,3299.5 Z"/></g>
<g><path style="opacity:1" fill="#f6dbb3" d="M 2039.5,3260.5 C 2039.5,3291.17 2039.5,3321.83 2039.5,3352.5C 2060.83,3352.5 2082.17,3352.5 2103.5,3352.5C 2082.01,3353.5 2060.34,3353.83 2038.5,3353.5C 2038.17,3322.33 2038.5,3291.33 2039.5,3260.5 Z"/></g>
<g><path style="opacity:1" fill="#f8cf94" d="M 2103.5,3441.5 C 2082.17,3441.5 2060.83,3441.5 2039.5,3441.5C 2039.83,3477.34 2039.5,3513 2038.5,3548.5C 2038.5,3512.5 2038.5,3476.5 2038.5,3440.5C 2060.34,3440.17 2082.01,3440.5 2103.5,3441.5 Z"/></g>
</svg>
